<svg xmlns="http://www.w3.org/2000/svg" xmlns:svg="http://www.w3.org/2000/svg" xmlns:xlink="http://www.w3.org/1999/xlink" id="Layer_1" x="0" y="0" enable-background="new 0 0 387.5 125" version="1.0" viewBox="0 0 387.5 125" xml:space="preserve"><switch><g><path fill="#FFF" d="M114.7,96.3c-2.4-0.5-4.9-0.9-7.5-0.9c-4.4,0-8.4,0.8-11.3,2c-0.3,0.2-0.6,0.5-0.6,0.9 c0,0.1,0,0.3,0.1,0.4c0.3,1-0.2,2.1-3.1,2.7c-4.2,0.9-6.9,5.3-8.4,6.7c-1.8,1.7-6.9,2.8-6.1,1.7c0.6-0.8,2.9-3.3,4.3-5.9 c1.2-2.4,2.4-3.1,3.9-5.4c0.5-0.7,2.2-3,2.7-4.9c0.6-1.8,0.4-4.1,0.6-5c0.3-1.4,1.6-4.3,1.7-6c0.1-0.9-3.9,1.3-5.8,1.3 c-1.9,0-3.7-1.1-5.4-1.2c-2.1-0.1-3.4,1.6-5.3,1.3c-1.1-0.2-2-1.1-3.9-1.2c-2.7-0.1-6,1.5-12.1,1.3c-6.1-0.2-11.6-7.7-12.4-8.8 c-0.9-1.4-2-1.4-3.2-0.3c-1.2,1.1-2.7,0.2-3.1-0.5c-0.8-1.4-2.9-5.4-6.2-6.3c-4.5-1.2-6.8,2.5-6.5,5.5c0.3,3,2.2,3.8,3.1,5.4 c0.9,1.6,1.3,2.6,3,3.3c1.2,0.5,1.6,1.2,1.3,2.2c-0.3,0.9-1.5,1-2.4,1.1c-1.7,0.1-2.9-0.4-3.8-1c-1-0.7-1.9-1.6-2.8-3.1 c-1-1.7-2.7-2.4-4.6-2.4c-0.9,0-1.8,0.2-2.5,0.6c-3,1.6-6.5,2.5-10.4,2.5l-4.3,0c8.3,24.6,31.5,42.3,58.9,42.3 C84.4,124.7,103.6,113.4,114.7,96.3"/><path d="M114.7,96.3c-2.4-0.6-4.9-0.9-7.5-0.9c-4.4,0-8.4,0.8-11.3,2c-0.3,0.2-0.6,0.5-0.6,0.9c0,0.1,0,0.3,0.1,0.4 c0.3,1-0.2,2.1-3.1,2.7c-4.2,0.9-6.9,5.3-8.4,6.7c-1.8,1.7-6.9,2.8-6.1,1.7c0.6-0.8,2.9-3.3,4.3-6c1.2-2.4,2.4-3.1,3.9-5.4 c0.5-0.7,2.2-3,2.7-4.9c0.6-1.8,0.4-4.1,0.6-5c0.3-1.4,1.6-4.3,1.7-6c0.1-0.9-3.9,1.3-5.8,1.3c-1.9,0-3.7-1.1-5.4-1.2 c-2.1-0.1-3.4,1.6-5.3,1.3c-1.1-0.2-2-1.1-3.9-1.2c-2.7-0.1-6,1.5-12.1,1.3c-6.1-0.2-11.6-7.6-12.4-8.8c-0.9-1.4-2-1.4-3.2-0.3 c-1.2,1.1-2.7,0.2-3.1-0.5c-0.8-1.4-2.9-5.4-6.2-6.3c-4.5-1.2-6.8,2.5-6.5,5.5c0.3,3,2.2,3.8,3.1,5.4c0.9,1.6,1.3,2.6,3,3.3 c1.2,0.5,1.6,1.2,1.3,2.2c-0.3,0.9-1.5,1-2.4,1.1c-1.7,0.1-2.9-0.4-3.8-1c-1-0.6-1.9-1.6-2.8-3.1c-1-1.7-2.7-2.4-4.6-2.4 c-0.9,0-1.8,0.2-2.5,0.6c-3,1.6-6.5,2.5-10.4,2.5H3.6c-2.1-6.2-3.2-12.9-3.2-19.9c0-34.3,27.8-62.1,62.2-62.1 c34.3,0,62.2,27.8,62.2,62.1C124.6,75,121,86.6,114.7,96.3"/><path d="M76.2,90.6c0.3,0.3,0.9,1.4,0.2,2.7c-0.4,0.7-0.8,1.2-1.5,1.8c-0.9,0.7-2.6,1.5-4.9,0c-1.3-0.8-1.3-1.1-3.1-0.8 c-1.2,0.2-1.7-1.1-1.3-2.1c0.5-1,2.3-1.9,4.6-0.5c1,0.6,2.6,1.9,4,0.7c0.6-0.5,0.9-0.8,1.7-1.7c0,0,0.1-0.1,0.1-0.1 C76.1,90.6,76.1,90.6,76.2,90.6"/><path fill="#E93442" d="M57.6,30c-7.2,0.5-7.9,1.3-9.3,2.7c-1.9,2-4.4-2.6-4.4-2.6c-1.5-0.3-3.3-2.7-2.3-5c1-2.2,2.8-1.6,3.3-0.9 c0.7,0.8,2.1,2.2,4,2.2c1.9-0.1,4.1-0.4,7.1-0.4c3.1,0,5.1,1.1,5.2,2.1C61.4,29,61.1,29.8,57.6,30 M65.2,18.2L65.2,18.2 C65,18.2,65,18.1,65,18c0-0.1,0-0.1,0.1-0.2c1.4-0.7,3.5-1.3,5.8-1.6c0.7-0.1,1.4-0.1,2.1-0.1h0.4c4,0.1,7.2,1.7,7.1,3.5 c-0.1,1.9-3.3,3.3-7.3,3.2c-1.3,0-2.5-0.2-3.5-0.5c-0.1,0-0.2-0.1-0.2-0.3c0-0.1,0.1-0.2,0.2-0.3c2.5-0.6,4.2-1.5,4-2.4 c-0.2-1.2-3.4-1.8-7.3-1.4C66,18,65.6,18.1,65.2,18.2 M97.6,46c-0.6,2.1-1.5,4.7-5.4,6.7c-0.6,0.3-0.8-0.2-0.5-0.6 c1.5-2.5,1.7-3.1,2.2-4.1c0.6-1.4,0.9-3.5-0.3-7.8c-2.3-8.4-7.2-19.6-10.8-23.3c-3.4-3.5-9.6-4.5-15.2-3.1 c-2.1,0.5-6.1,2.6-13.6,0.9c-13-2.9-14.9,3.6-15.6,6.4c-0.7,2.8-2.5,10.9-2.5,10.9c-0.6,3.3-1.4,9,18.7,12.8 c9.4,1.8,9.8,4.2,10.3,5.9c0.7,3.1,1.9,4.9,3.3,5.8s0,1.6-1.5,1.8c-4,0.4-18.7-3.8-27.5-8.8c-7.1-4.4-7.3-8.3-5.6-11.6 c-10.8-1.2-18.9,1-20.3,6.1c-2.5,8.8,19.3,23.7,44.1,31.2c26,7.9,52.8,2.4,55.8-14C114.4,53.9,108.1,48.4,97.6,46"/><g id="g3880"><path d="M124,93h0.6l0.8,1.4h0.5L125,93c0.5-0.1,0.8-0.3,0.8-0.9c0-0.6-0.4-0.9-1.1-0.9h-1.2v3.2h0.5C124,94.4,124,93,124,93z M124,92.6v-1h0.7c0.3,0,0.7,0.1,0.7,0.5c0,0.5-0.4,0.5-0.8,0.5H124z"/><path d="M127.7,92.8c0,1.7-1.4,3.1-3.1,3.1s-3.1-1.4-3.1-3.1c0-1.7,1.4-3.1,3.1-3.1S127.7,91.1,127.7,92.8 M124.6,90.2 c-1.4,0-2.6,1.2-2.6,2.6c0,1.4,1.2,2.6,2.6,2.6c1.4,0,2.6-1.2,2.6-2.6C127.2,91.4,126,90.2,124.6,90.2"/></g><path d="M156.3,66.5c0-5.7-0.1-9.9-0.3-13.7h9.3l0.4,8.1h0.3c2.1-6,7.1-9,11.7-9c1,0,1.7,0,2.5,0.2v10.1c-1-0.2-2-0.3-3.2-0.3 c-5.1,0-8.7,3.3-9.7,8.1c-0.2,0.9-0.3,2.1-0.3,3.2v22.1h-10.8C156.2,95.4,156.3,66.5,156.3,66.5z"/><path d="M193.2,77c0.3,7.7,6.3,11.1,13.1,11.1c4.9,0,8.5-0.8,11.7-2l1.6,7.4c-3.6,1.5-8.7,2.7-14.9,2.7 c-13.8,0-21.9-8.5-21.9-21.6c0-11.7,7.1-22.9,20.8-22.9c13.8,0,18.4,11.4,18.4,20.7c0,2-0.2,3.6-0.4,4.6L193.2,77z M211.9,69.5 c0.1-3.9-1.7-10.4-8.9-10.4c-6.6,0-9.4,6-9.9,10.4C193.2,69.5,211.9,69.5,211.9,69.5z"/><path d="M257.7,76.9c0,1.1-0.1,2.2-0.3,3.1c-1.1,4.7-4.9,7.7-9.3,7.7c-6.8,0-10.7-5.7-10.7-13.5c0-7.9,3.8-14,10.8-14 c4.8,0,8.3,3.4,9.3,7.6c0.2,0.9,0.2,1.9,0.2,2.8C257.7,70.5,257.7,76.9,257.7,76.9z M268.4,36.4l-10.8-3v24h-0.2 c-1.9-3.1-6.1-5.5-11.9-5.5c-10.2,0-19.2,8.5-19.1,22.7c0,13.1,8.1,21.7,18.2,21.7c6.1,0,11.3-2.9,13.8-7.7h0.2l0.5,6.7h9.6 c-0.2-2.9-0.4-7.6-0.4-11.9V36.4z"/><path d="M296.9,51.8c-3.2,0-6.2,0.9-8.6,2.4c-2.5,1.5-4.6,3.8-5.8,6.1h-0.2V40.5l-4.2-1.2v56.1h4.2v-26c0-1.7,0.1-2.9,0.6-4.2 c1.8-5.3,6.8-9.6,12.9-9.6c8.7,0,11.7,7,11.7,14.7v25.2h4.2V69.7C311.7,53.8,300.9,51.8,296.9,51.8"/><path d="M349.5,85.2c0,3.4,0.1,6.9,0.6,10.1h-3.9l-0.6-6.1h-0.2c-2.1,3.3-6.8,7.1-13.6,7.1c-8.6,0-12.6-6-12.6-11.7 c0-9.8,8.7-15.8,26-15.6v-1.1c0-4.2-0.8-12.6-10.9-12.6c-3.7,0-7.6,1-10.7,3.2l-1.3-3.1c3.9-2.6,8.6-3.7,12.5-3.7 c12.3,0,14.6,9.2,14.6,16.8C349.5,68.6,349.5,85.2,349.5,85.2z M345.3,72.6c-9.3-0.3-21.5,1.1-21.5,11.4c0,6.1,4,8.9,8.5,8.9 c7.1,0,11.1-4.4,12.6-8.5c0.3-0.9,0.4-1.8,0.4-2.6C345.3,81.7,345.3,72.6,345.3,72.6z"/><path d="M366.3,43.4v9.4h12.2v3.4h-12.2v27.7c0,5.4,1.7,8.8,6.3,8.8c2.2,0,3.8-0.3,4.8-0.7l0.5,3.3c-1.4,0.6-3.3,1-5.9,1 c-3.1,0-5.7-1-7.4-3c-1.9-2.2-2.6-5.8-2.6-10.2V56.2h-7.2v-3.4h7.2v-7.8L366.3,43.4z"/><g id="use3884" transform="translate(61.7183,0.0205)"><g id="g3880_1_"><path d="M383.8,93.1h0.6l0.8,1.4h0.5l-0.9-1.4c0.5-0.1,0.8-0.3,0.8-0.9c0-0.6-0.4-0.9-1.1-0.9h-1.2v3.2h0.5 C383.8,94.5,383.8,93.1,383.8,93.1z M383.8,92.7v-1h0.7c0.3,0,0.7,0.1,0.7,0.5c0,0.5-0.4,0.5-0.8,0.5H383.8z"/><path d="M387.5,92.9c0,1.7-1.4,3.1-3.1,3.1c-1.7,0-3.1-1.4-3.1-3.1c0-1.7,1.4-3.1,3.1-3.1C386.1,89.7,387.5,91.2,387.5,92.9 M384.4,90.3c-1.4,0-2.6,1.2-2.6,2.6c0,1.4,1.2,2.6,2.6,2.6c1.4,0,2.6-1.2,2.6-2.6C386.9,91.5,385.8,90.3,384.4,90.3"/></g></g></g></switch></svg>