<svg xmlns="http://www.w3.org/2000/svg" xmlns:xlink="http://www.w3.org/1999/xlink" id="Layer_1" x="0" y="0" enable-background="new 0 0 254.7 79.1" version="1.0" viewBox="0 0 254.7 79.1" xml:space="preserve"><switch><g><g><g><g><path fill="#0080CB" d="M130,11.8h-14.2V4.9H112v6.9H97.9v19.4H112v10.6h3.7V31.2H130V11.8z M101.6,27.8V15.2H112v12.6H101.6z M126.3,27.8h-10.6V15.2h10.6V27.8z"/><path fill="#0080CB" d="M138.7,6.1v34.5h32.5V6.1H138.7z M167.7,37.4h-25.5V9.5h25.5V37.4z"/><g><polygon fill="#0080CB" points="156.6 31.1 156.6 23.6 164.4 23.6 164.4 20.3 156.6 20.3 156.6 15.6 165.1 15.6 165.1 12.3 144.6 12.3 144.6 15.6 153.1 15.6 153.1 20.3 145.3 20.3 145.3 23.6 153.1 23.6 153.1 31.1 144 31.1 144 34.4 165.7 34.4 165.7 31.1"/><path fill="#0080CB" d="M161.5,30.8l2.8-2.2c-1.5-1.7-4.2-4.8-4.2-4.8l-2.6,2C159.8,28.3,161.5,30.8,161.5,30.8z"/></g><g><path fill="#0080CB" d="M191.1,29.1l2.4-2.8l-6-5.1v-1.8h5.1v-3.2h-5.1v-5.2c2.3-0.6,5.2-1.1,5.2-1.1l-0.7-3.5 c-3.1,1-13.2,2.1-13.2,2.1l0.5,3.4l4.7-0.8v5.1h-5.7v3.2h5.3c-0.4,1.3-2.3,6.9-6,12.1l2.6,2.8c0,0,2.2-3.5,3.7-7v14.5h3.6 V25.6L191.1,29.1z"/><path fill="#0080CB" d="M205.2,23.5c0.3-0.6,0.6-1.1,0.8-1.7l-3.4-0.5c0.5-0.3,1-0.6,1.5-0.9c6.8-4.4,9-9.4,9-9.4V8h-11.7 c0.5-0.7,0.9-1.5,1.2-2.3l-3.4-1.3c0,0-2.7,6-8.2,10.1l2.9,2.3c0,0,2.6-2.4,5.1-5.5h9.9c-1.4,2.2-3.3,4-5.4,5.4l-4.4-3.6 l-2.3,2.4l3.7,3.1c-4.5,2.5-8.8,3.6-8.8,3.6l2.3,2.8c3.2-1.2,5.6-2.2,7.7-3.3c-0.6,1-2,3.1-4.6,5.5c-1.6,1.5-3.7,3-6.2,4.4 l2.7,2.7c0,0,5.3-2.7,9.2-7.4h7.4c-0.8,3.6-3.1,6.1-5.8,7.9l-4-3.9l-2.5,2.1c0,0,2.3,2.1,3.5,3.4c-5.4,2.3-11.2,2.4-11.2,2.4 l1.5,3c7.3-0.6,12.2-2.6,15.6-5.2c5.7-4.3,7-9.8,7-9.8v-3.2H205.2z"/></g><g><rect width="15.4" height="3.4" x="220.9" y="8.3" fill="#0080CB"/><path fill="#0080CB" d="M233.3,36.2l3.5-1.4c-0.7-1.8-4.3-9.6-4.3-9.6l-3.2,1.4c0.9,1.9,1.8,4,2.5,5.8c-1.6,0.4-5.8,1.4-7.9,2 c0,0,1-1.7,2.9-6.9c1.5-4.2,1.8-5.5,2.4-6.3h8.4v-3.4h-18.3v3.4h5.9c-0.3,1.1-1.3,5-2.8,8.7c-0.9,2.1-1.8,4.2-3.1,5.7l0.9,2.7 c0,0,9.2-2.8,12.8-3.1C233.2,35.9,233.3,36.2,233.3,36.2z"/><path fill="#0080CB" d="M244.9,12.5l0.2-7.6h-3.9c0,0,0,3.4,0,7.6h-4.8V16h4.8c0,2.6,0,5.4-0.2,7.3c-0.4,4.4-1,6.1-1,6.1 c-1.9,7.2-7.5,10.3-7.5,10.3l2.8,2.6c10-6.4,9.4-20.6,9.4-20.6l0.1-5.7h6.2l-0.7,18.8c0,2.4-2.3,2.2-2.3,2.2h-4.3l0.7,3.7h4.1 c5.3,0,5.4-5.4,5.4-5.4l0.8-22.8H244.9z"/></g></g><g><rect width="2.9" height="14.7" x="135.5" y="55.6" fill="#0080CB"/><rect width="2.9" height="3.3" x="135.5" y="49.7" fill="#0080CB"/><rect width="2.9" height="14.7" x="230.6" y="55.6" fill="#0080CB"/><rect width="2.9" height="22.1" x="236.7" y="48.1" fill="#0080CB"/><rect width="2.9" height="3.3" x="230.6" y="49.7" fill="#0080CB"/><path fill="#0080CB" d="M129.1,55.4c0,0-3.4-0.9-5.7,1.7v-8.9h-2.9v22.1h2.9v-10c0.5-1,1.9-3,4.7-2.4c0,0,1.5,0.2,1.5,2.8 c0,2.8,0,9.6,0,9.6h3v-9.5C132.6,60.7,133,56.3,129.1,55.4z"/><path fill="#0080CB" d="M150,55.4c0,0-3.6-0.9-5.8,1.9l-0.5-1.7h-2.2v14.7h2.8v-9.9l0,0c0.5-0.9,2.1-2.9,4.7-2.5 c0,0,1.5,0.2,1.5,2.8c0,2.8,0,9.6,0,9.6h3v-9.5C153.5,60.7,153.9,56.3,150,55.4z"/><path fill="#0080CB" d="M164,55.6c-3.5-1.3-7.2,0.5-7.2,0.5v2.7c0,0,7.7-3.5,7.7,2.6l0,0.2c0,0-4.2-1.3-6.5,0.2 c0,0-3.6,2-2,6.1c0,0,1.3,3,4.6,2.8c1.1,0,2.5-0.5,4.1-1.6l0.2,1.2h2.5v-9.4C167.4,60.9,167.7,56.9,164,55.6z M164.4,66.5 c0,0-1.3,1.4-3.9,1.5c0,0-2.4-0.2-2-2.5c0.4-2.5,3.4-2.3,5.9-1.5V66.5z"/><polygon fill="#0080CB" points="186.1 64.8 179.8 49.8 175.9 49.8 175.9 70.2 178.8 70.2 178.8 54.7 185.3 70.2 186.8 70.2 193.3 54.8 193.3 70.2 196.3 70.2 196.3 49.8 192.4 49.8"/><path fill="#0080CB" d="M205.9,55.2c-4.2,0-7.6,3.4-7.6,7.7c0,4.2,3.4,7.7,7.6,7.7c4.2,0,7.6-3.4,7.6-7.7 C213.5,58.6,210.1,55.2,205.9,55.2z M205.9,67.9c-2.8,0-5-2.3-5-5.1c0-2.8,2.3-5.1,5-5.1c2.8,0,5,2.3,5,5.1 C210.9,65.6,208.6,67.9,205.9,67.9z"/><path fill="#0080CB" d="M224.7,55.8c-3.7-1.8-6.3,0.8-6.3,0.8v-8.4h-3v22.1h2.3l0.4-1.3c1.3,1.5,3.6,1.7,3.6,1.7 c2,0,3.5-0.9,4.6-2.1c1.2-1.3,1.9-3.4,2-4.3C228.6,62,228.6,57.6,224.7,55.8z M221.9,68c-2.7,0.1-3.6-1.7-3.6-1.7v-7.1 c0,0,1.3-1.5,3.5-1.5c2.2,0,3.2,1.7,3.5,4.2C225.6,64.5,224.9,68,221.9,68z"/><path fill="#0080CB" d="M252.8,57.3c-1.7-2.3-4.5-2.1-4.5-2.1c-1.7,0-3.2,0.7-4.2,1.6c-1.6,1.4-2.1,3.4-2.1,3.4 c-1.3,5.1,1,8,1,8c1.1,1.5,3.4,2.3,5.2,2.4c3.1,0.2,5.4-0.9,5.4-0.9v-2.5c-9.1,3.2-9.2-3.4-9.2-3.4h9.8 C254.4,60.6,253.8,58.6,252.8,57.3z M244.8,61.2c0,0,0.6-3.4,3.5-3.4c2.9,0,3,3.4,3,3.4H244.8z"/><path fill="#0080CB" d="M108.3,67.7c-4.3,0-7.7-3.5-7.7-7.8c0-4.3,3.5-7.8,7.7-7.8c2.9,0,5.4,1.6,6.7,4h3.1 c-1.5-3.9-5.3-6.7-9.8-6.7c-5.8,0-10.5,4.7-10.5,10.6c0,5.8,4.7,10.6,10.5,10.6c4.5,0,8.3-2.9,9.8-6.9h-3 C113.8,66,111.3,67.7,108.3,67.7z"/></g></g><g><path fill="#9CC716" d="M3,26.9c0,0,8,10.6,16.8,17.6c0,0,3.3,2.8,6.9-0.4c3.6-3.2,18.4-16.7,18.4-16.7s5.6-5.5,11.8,0 c0,0,13.1,11.6,20.2,21.4c0,0,0.4,0.4,0.1,1c-0.4,0.6-1,2.3-1,2.3S68.3,42,59.2,34.5c0,0-3.5-2.7-6.6,0.2 c-3,2.8-17.4,16-19.7,17.7c-2.3,1.7-6.1,3.4-11.4-1.4C17.3,47.2,6.3,36.9,2,30.3c0,0-0.4-0.4-0.1-1.1C2.3,28.4,3,26.9,3,26.9z"/><path fill="#0080CB" d="M4.6,23.7l4.6,5c0,0,0.6,0.7,1.6-0.2C11.9,27.7,26,14,31.4,10.1c3.1-2.2,6.4-3.6,10.1-3.9 c2.8-0.2,5.7,0.1,8.9,1.5c3.4,1.5,8.7,5.8,13.6,10.9c3.5,3.6,6.9,7.6,9.8,11.5c2,2.6,3.9,5.2,5.3,7.5c0,0,0-3.2-1.4-5.9 c0,0-5.8-11-17-21.4C59.6,9.4,50-0.2,40.7,0c0,0-8.7-0.5-16.6,6C22.8,7.1,8.9,19,4.6,23.7z"/><path fill="#0080CB" d="M14.5,34.4l5.2,5c0,0,1.2,0.9,2.6-0.4c0,0,5-4.9,9.3-8.8c4-3.7,8.1-7.5,9.6-8.6c0,0,6.5-6.8,14.9-0.2 c0,0,11.3,8.9,22.5,24.1l0.4-1.8c0,0,0.4-1.5-0.6-2.9c0,0-8.7-12.9-19.5-22.1c0,0-5.4-5.7-12.2-7.1c0,0-5.7-1.3-11,2.9 c-2.6,2.1-8.4,7.4-13.1,11.9C17.9,30.7,14.5,34.4,14.5,34.4z"/><path fill="#0080CB" d="M74.5,55.3l-4.6-5c0,0-0.6-0.7-1.6,0.2C67.2,51.4,53.1,65.1,47.7,69c-3.1,2.2-6.4,3.6-10.1,3.9 c-2.8,0.2-5.7-0.1-8.9-1.5c-3.4-1.5-8.7-5.8-13.6-10.9c-3.5-3.6-6.9-7.6-9.8-11.5c-2-2.6-3.9-5.2-5.3-7.5c0,0,0,3.2,1.4,5.9 c0,0,5.7,11,17,21.4c1.1,1,10.7,10.6,20,10.4c0,0,8.7,0.5,16.6-6C56.3,72,70.1,60,74.5,55.3z"/><path fill="#0080CB" d="M64.6,44.7l-5.2-5c0,0-1.2-0.9-2.6,0.4c0,0-5,4.9-9.3,8.8c-4,3.7-8.1,7.5-9.6,8.6c0,0-6.5,6.8-14.9,0.2 c0,0-11.3-8.9-22.5-24.1l-0.4,1.8c0,0-0.4,1.5,0.6,2.9c0,0,8.7,12.9,19.5,22.1c0,0,5.4,5.7,12.2,7.1c0,0,5.7,1.3,11-2.9 c2.6-2.1,8.4-7.4,13.1-11.9C61.1,48.4,64.6,44.7,64.6,44.7z"/></g></g></g></switch></svg>